<?xml version="1.0" encoding="iso-8859-1"?>
<!-- Generator: Adobe Illustrator 19.0.0, SVG Export Plug-In . SVG Version: 6.00 Build 0)  -->
<svg version="1.1" id="Capa_1" xmlns="http://www.w3.org/2000/svg" xmlns:xlink="http://www.w3.org/1999/xlink" x="0px" y="0px"
	 viewBox="0 0 512 512" style="enable-background:new 0 0 512 512;" xml:space="preserve">
<g>
	<path style="fill:#57555C;" d="M501.66,315.2L10.25,234.78v95.86c0,19.42,9.02,38.18,25.18,48.93
		c37.24,24.79,81.34,37.65,126.34,37.65c25.45,0,50.66-4.05,74.91-12.03c70.24-23.12,168.87-31.02,245.29-30.34
		c11.18,0.1,20.28-8.77,20.28-19.95v-39.7L501.66,315.2L501.66,315.2z"/>
	<path style="fill:#57555C;" d="M260.25,174.78c-16.57,0-30,13.43-30,30s13.43,30,30,30h122.38l67.62,23v-83H260.25z"/>
</g>
<path style="fill:#FD6244;" d="M400.12,234.78c-16.418,0-123.59,0-139.87,0c-16.57,0-30-13.43-30-30s13.43-30,30-30
	c5.953,0,180.963,0,190,0h0.03c-17.42-23.35-49.87-43.14-88.83-57.2c-41.591-14.997-88.546-22.8-131.2-22.8
	c-119.013,0-220,61.113-220,140c0,76.679,101.895,148.173,207.67,113.42c72.83-23.957,176.661-33.42,254.33-33.42
	c9.91,0,19.72,0.14,29.41,0.42C495.824,266.257,446.499,234.78,400.12,234.78z"/>
<path d="M170,224.78c5.52,0,10-4.48,10-10s-4.48-10-10-10s-10,4.48-10,10S164.48,224.78,170,224.78z"/>
<path d="M0,330.64c0,23.505,11.081,44.909,29.639,57.254c38.648,25.728,84.252,39.326,131.881,39.326
	c26.511,0,52.766-4.216,78.037-12.531c59.262-19.507,149.781-30.663,242.074-29.839c0.093,0,0.187,0.001,0.279,0.001
	c16.659,0,30.09-13.332,30.09-29.951v-39.7c0-1.676-0.417-3.252-1.146-4.64c-0.387-2.471-0.869-4.979-1.457-7.498
	c-5.92-25.311-23.733-47.568-49.397-62.106v-65.532c0.15-2.33-0.508-4.684-1.954-6.623C414.582,110.542,302.873,84.78,230,84.78
	c-27.127,0-53.67,3.024-78.89,8.987C76.627,111.368,0,160.636,0,234.78V330.64z M489.229,304.921
	c-5.713-0.094-11.474-0.142-17.229-0.142c-45.943,0-92.805,2.974-136.951,8.629l52.284-68.629h12.537
	C437.591,244.78,478.998,268.497,489.229,304.921z M306.831,317.446c-35.524,5.65-66.559,12.792-92.282,21.254
	c-3.907,1.284-7.861,2.411-11.843,3.409l74.148-97.329h85.337L306.831,317.446z M440,231.836
	c-13.072-4.635-26.733-7.057-40.13-7.057H260c-11.028,0-20-8.972-20-20s8.972-20,20-20c21.668,0,161.453,0,180,0V231.836z
	 M364.648,129.554c25.566,9.892,46.879,21.992,62.214,35.226H337.81L364.648,129.554z M158.962,112.489
	c22.746-5.112,46.624-7.709,71.038-7.709c2.739,0,5.51,0.045,8.292,0.112l-53.858,70.699c-3.347,4.393-2.498,10.668,1.896,14.015
	c4.412,3.362,10.683,2.478,14.015-1.896l62.049-81.452c28.157,2.491,56.296,8.079,82.411,16.341l-32.137,42.181H260
	c-22.056,0-40,17.944-40,40c0,19.416,13.909,35.639,32.284,39.246L174.03,346.744c-28.946,2.142-57.877-3.328-82.973-15.605
	l60.897-79.919c3.348-4.393,2.5-10.667-1.894-14.015c-4.395-3.349-10.668-2.5-14.015,1.894l-62.462,81.972
	c-4.384-2.943-8.612-6.118-12.633-9.499c-14.742-12.381-25.661-26.002-32.548-40.556L158.962,112.489z M124.908,122.378
	L21.173,248.337C20.408,243.843,20,239.318,20,234.78C20,180.187,72.825,141.192,124.908,122.378z M20,296.356
	c28.241,41.247,80.84,70.848,141.765,70.848c52.22,0,56.955-16.012,152.863-30.74C364.405,328.82,418.824,324.78,472,324.78
	c6.692,0,13.384,0.07,20,0.2v29.92c0,5.55-4.471,9.951-10.095,9.951c-0.032,0-0.064,0-0.097-0.001
	c-94.391-0.831-187.282,10.689-248.505,30.841c-23.249,7.65-47.401,11.529-71.784,11.529c-43.673,0-85.444-12.439-120.801-35.977
	C27.745,362.614,20,347.435,20,330.64V296.356z"/>
<g>
</g>
<g>
</g>
<g>
</g>
<g>
</g>
<g>
</g>
<g>
</g>
<g>
</g>
<g>
</g>
<g>
</g>
<g>
</g>
<g>
</g>
<g>
</g>
<g>
</g>
<g>
</g>
<g>
</g>
</svg>
