<?xml version="1.0" encoding="iso-8859-1"?>
<!-- Generator: Adobe Illustrator 19.0.0, SVG Export Plug-In . SVG Version: 6.00 Build 0)  -->
<svg version="1.1" id="Capa_1" xmlns="http://www.w3.org/2000/svg" xmlns:xlink="http://www.w3.org/1999/xlink" x="0px" y="0px"
	 viewBox="0 0 512 512" style="enable-background:new 0 0 512 512;" xml:space="preserve">
<rect x="79.2" y="8" style="fill:#FFFFFF;" width="353.6" height="263.2"/>
<rect x="110.96" y="39.792" style="fill:#FFBF5D;" width="289.6" height="199.2"/>
<rect x="219.2" y="16" style="fill:#27A2DE;" width="73.6" height="68.8"/>
<path style="fill:#FFFFFF;" d="M347.2,316c-11.2,0-20,8.8-20,20v-11.2c0-11.2-8.8-20-20-20s-20,8.8-20,20V312c0-11.2-8.8-20-20-20
	s-20,8.8-20,20v-81.6c0-11.2-8.8-20-20-20c-11.2,0-20,8.8-20,20v126.4l-22.4-50.4C180,296,168,292,157.6,296.8s-14.4,16.8-9.6,27.2
	l36,84.8c2.4,4.8,4.8,8.8,8,12.8l32,40.8h112.8l22.4-40.8c5.6-10.4,8.8-23.2,8.8-35.2v-12.8v-38.4C368,325.6,358.4,316,347.2,316z"
	/>
<rect x="203.2" y="463.2" style="fill:#D3D7DA;" width="151.2" height="40.8"/>
<g>
	<path style="fill:#193651;" d="M440.8,279.2V0H71.2v279.2h126.4v40l-7.2-16c-6.4-14.4-23.2-20-37.6-13.6s-20,24-13.6,37.6
		c40.8,92,39.2,90.4,46.4,100l22.4,28h-12V512h167.2v-56.8h-12.8c16-28.8,25.6-42.4,25.6-68v-50.4c0-22.4-24.8-36-44-24
		c-7.2-14.4-25.6-20-40-11.2c-6.4-15.2-24-21.6-38.4-14.4V280h187.2V279.2z M347.2,496h-136v-24.8h135.2V496H347.2z M266.4,300
		c6.4,0,12,5.6,12,12v12.8v22.4h16v-22.4c0-6.4,5.6-12,12-12s12,5.6,12,12V336v11.2h16V336c0-6.4,5.6-12,12-12s12,5.6,12,12v50.4
		c0,20.8-7.2,29.6-28,68h-104L196.8,416c-6.4-8-5.6-8-44.8-96.8c-3.2-6.4,0-13.6,5.6-16c6.4-3.2,13.6,0,16,5.6l37.6,84.8V230.4
		c0-6.4,5.6-12,12-12s12,5.6,12,12v82.4V348h16v-35.2C253.6,305.6,259.2,300,266.4,300z M225.6,202.4c-16,0-28,12.8-28,28V264H87.2
		V16h337.6v247.2H253.6v-33.6C253.6,214.4,240.8,202.4,225.6,202.4z"/>
	<rect x="197.6" y="132" style="fill:#193651;" width="16" height="16"/>
	<rect x="248" y="132" style="fill:#193651;" width="16" height="16"/>
	<rect x="298.4" y="132" style="fill:#193651;" width="16" height="16"/>
	<rect x="230.4" y="413.6" style="fill:#193651;" width="16" height="16"/>
	<rect x="271.2" y="413.6" style="fill:#193651;" width="16" height="16"/>
	<rect x="312" y="413.6" style="fill:#193651;" width="16" height="16"/>
</g>
<g>
</g>
<g>
</g>
<g>
</g>
<g>
</g>
<g>
</g>
<g>
</g>
<g>
</g>
<g>
</g>
<g>
</g>
<g>
</g>
<g>
</g>
<g>
</g>
<g>
</g>
<g>
</g>
<g>
</g>
</svg>
