<svg width="716" height="190" viewBox="0 0 716 190" fill="none" xmlns="http://www.w3.org/2000/svg">
<rect x="553" y="15" width="122" height="170" rx="11" fill="#E23638"/>
<path d="M640.419 87.0686L604.728 63.8909C600.926 61.4218 599.846 56.3382 602.315 52.5362L609.259 41.8424C611.728 38.0404 616.812 36.9599 620.614 39.4289L656.305 62.6066C660.107 65.0756 661.187 70.1593 658.718 73.9613L651.774 84.655C649.304 88.4571 644.221 89.5376 640.419 87.0686Z" fill="url(#paint0_linear)"/>
<path opacity="0.5" d="M656.305 62.6066L620.614 39.4289C616.812 36.9599 611.728 38.0404 609.259 41.8424L605.483 47.6571L609.607 67.0594L640.419 87.0686C644.221 89.5376 649.304 88.4571 651.774 84.655L658.718 73.9613C661.187 70.1593 660.107 65.0756 656.305 62.6066V62.6066Z" fill="url(#paint1_linear)"/>
<path opacity="0.5" d="M656.305 62.6066L641.099 52.7322L625.214 77.1941L640.419 87.0685C644.221 89.5376 649.304 88.457 651.774 84.655L658.718 73.9613C661.187 70.1593 660.107 65.0756 656.305 62.6066V62.6066Z" fill="url(#paint2_linear)"/>
<path d="M604.597 45.1806C604.432 46.5302 605.307 47.7856 606.63 48.1017C614.64 50.0168 624.024 54.123 633.294 60.1427C642.563 66.1624 650.131 73.0651 655.139 79.604C655.966 80.6836 657.468 80.9721 658.634 80.2727C663.809 77.1683 665.013 70.1603 661.126 65.5438C656.177 59.6645 649.272 53.6053 641.019 48.2459C632.767 42.8866 624.423 39.0435 617.039 36.9131C611.241 35.2404 605.328 39.1903 604.597 45.1806V45.1806Z" fill="url(#paint3_linear)"/>
<path d="M663.368 70.8337C662.561 72.396 661.323 73.7675 659.688 74.7488C658.522 75.4482 657.019 75.1597 656.192 74.0801C651.185 67.5411 643.617 60.6385 634.347 54.6188C625.078 48.5991 615.693 44.4928 607.683 42.5778C606.921 42.3956 606.309 41.9004 605.957 41.256C605.253 42.4127 604.773 43.7365 604.597 45.1806C604.432 46.5302 605.307 47.7856 606.63 48.1017C614.64 50.0168 624.024 54.123 633.294 60.1427C642.563 66.1624 650.131 73.0651 655.139 79.604C655.966 80.6836 657.468 80.9722 658.634 80.2727C662.05 78.2236 663.734 74.4738 663.368 70.8337V70.8337Z" fill="url(#paint4_linear)"/>
<path d="M616.805 44.9311C616.64 44.8562 616.501 44.725 616.426 44.5544C616.273 44.2078 616.439 43.8294 616.797 43.7091C617.023 43.6331 622.424 41.8593 629.346 43.0664C629.733 43.1337 630.012 43.4812 629.967 43.842C629.922 44.2028 629.572 44.4404 629.184 44.3728C622.652 43.2338 617.406 44.9475 617.353 44.965C617.171 45.0257 616.975 45.0082 616.805 44.9311V44.9311Z" fill="url(#paint5_linear)"/>
<path d="M624.585 48.4011C624.423 48.3208 624.288 48.185 624.219 48.0118C624.077 47.6602 624.255 47.2877 624.618 47.1795C624.847 47.1111 630.304 45.5197 637.181 46.9584C637.566 47.0385 637.833 47.3951 637.776 47.7542C637.719 48.1133 637.361 48.3391 636.976 48.2585C630.485 46.9008 625.184 48.4374 625.132 48.453C624.948 48.5079 624.752 48.484 624.585 48.4011Z" fill="url(#paint6_linear)"/>
<path d="M632.045 52.1834C631.888 52.0934 631.762 51.9497 631.703 51.7726C631.583 51.4131 631.784 51.0521 632.152 50.966C632.385 50.9116 637.929 49.6545 644.706 51.5078C645.085 51.6113 645.329 51.9833 645.251 52.3383C645.173 52.6933 644.801 52.8969 644.422 52.793C638.026 51.0437 632.641 52.2559 632.588 52.2682C632.401 52.312 632.206 52.2762 632.045 52.1834V52.1834Z" fill="url(#paint7_linear)"/>
<path d="M638.895 56.9793C638.744 56.8809 638.626 56.7305 638.576 56.5506C638.476 56.1851 638.696 55.8355 639.069 55.7696C639.304 55.728 644.908 54.7745 651.574 56.9939C651.947 57.1178 652.171 57.5027 652.073 57.853C651.976 58.2031 651.594 58.3862 651.221 58.2619C644.929 56.1671 639.487 57.0843 639.433 57.0938C639.244 57.1271 639.052 57.0807 638.895 56.9793V56.9793Z" fill="url(#paint8_linear)"/>
<path d="M645.436 62.6122C645.285 62.5138 645.167 62.3635 645.117 62.1835C645.017 61.818 645.237 61.4685 645.609 61.4025C645.845 61.3609 651.449 60.4074 658.115 62.6269C658.488 62.7508 658.712 63.1357 658.614 63.4859C658.517 63.8361 658.135 64.0191 657.762 63.8948C651.47 61.8 646.028 62.7173 645.974 62.7267C645.785 62.76 645.593 62.7138 645.436 62.6122V62.6122Z" fill="url(#paint9_linear)"/>
<path d="M635.383 61.5351C640.791 65.2272 645.563 69.2031 649.51 73.1936L644.745 50.7767C644.207 50.3942 643.661 50.0147 643.109 49.6379L635.383 61.5351Z" fill="url(#paint10_linear)"/>
<path d="M619.667 74.0041L626.173 78.2293C626.499 78.4408 626.935 78.3482 627.146 78.0225L644.628 51.1022C644.834 50.7853 644.754 50.3614 644.445 50.1441C643.391 49.4034 642.312 48.6734 641.208 47.9564C640.103 47.2394 638.998 46.5501 637.892 45.8885C637.568 45.6944 637.148 45.7938 636.942 46.1107L619.46 73.031C619.248 73.3568 619.341 73.7924 619.667 74.0041V74.0041Z" fill="url(#paint11_linear)"/>
<path opacity="0.5" d="M639.82 86.6735L640.44 87.0757C642.691 88.5379 645.393 88.7547 647.734 87.8991L645.586 77.795L639.82 86.6735Z" fill="url(#paint12_linear)"/>
<path d="M622.855 95.239L587.164 72.0613C583.362 69.5923 582.282 64.5086 584.751 60.7066L591.696 50.0129C594.165 46.2109 599.248 45.1303 603.05 47.5994L638.741 70.777C642.543 73.2461 643.623 78.3297 641.154 82.1318L634.21 92.8255C631.741 96.6274 626.657 97.708 622.855 95.239Z" fill="url(#paint13_linear)"/>
<path opacity="0.5" d="M638.741 70.7769L603.05 47.5992C599.248 45.1301 594.165 46.2107 591.696 50.0127L587.919 55.8274L592.044 75.2297L622.855 95.2388C626.657 97.7079 631.741 96.6273 634.21 92.8253L641.154 82.1316C643.623 78.3296 642.543 73.2458 638.741 70.7769Z" fill="url(#paint14_linear)"/>
<path opacity="0.5" d="M638.741 70.7769L623.536 60.9025L607.65 85.3645L622.855 95.2388C626.657 97.7079 631.741 96.6274 634.21 92.8253L641.154 82.1316C643.623 78.3296 642.543 73.2458 638.741 70.7769Z" fill="url(#paint15_linear)"/>
<path d="M587.033 53.3509C586.868 54.7005 587.743 55.9559 589.066 56.272C597.076 58.187 606.46 62.2933 615.73 68.313C624.999 74.3327 632.568 81.2354 637.575 87.7743C638.402 88.8539 639.904 89.1424 641.07 88.443C646.245 85.3385 647.449 78.3306 643.563 73.7141C638.613 67.8349 631.708 61.7756 623.456 56.4162C615.203 51.0569 606.859 47.2138 599.475 45.0834C593.677 43.4108 587.764 47.3606 587.033 53.3509Z" fill="url(#paint16_linear)"/>
<path d="M645.804 79.004C644.997 80.5663 643.759 81.9378 642.124 82.9191C640.958 83.6185 639.455 83.3299 638.629 82.2504C633.621 75.7114 626.053 68.8088 616.783 62.7891C607.514 56.7693 598.13 52.6631 590.119 50.7481C589.357 50.5658 588.745 50.0707 588.394 49.4263C587.689 50.583 587.209 51.9068 587.033 53.3509C586.869 54.7005 587.743 55.9559 589.066 56.272C597.076 58.187 606.46 62.2933 615.73 68.313C624.999 74.3327 632.568 81.2354 637.575 87.7743C638.402 88.8539 639.904 89.1424 641.07 88.443C644.486 86.3939 646.17 82.6443 645.804 79.004Z" fill="url(#paint17_linear)"/>
<path d="M599.241 53.1013C599.077 53.0264 598.938 52.8953 598.862 52.7246C598.709 52.378 598.875 51.9997 599.233 51.8793C599.46 51.8033 604.861 50.0296 611.782 51.2367C612.169 51.3039 612.448 51.6514 612.403 52.0123C612.358 52.3731 612.008 52.6106 611.62 52.5431C605.088 51.404 599.842 53.1177 599.789 53.1352C599.607 53.196 599.411 53.1786 599.241 53.1013V53.1013Z" fill="url(#paint18_linear)"/>
<path d="M607.021 56.5715C606.859 56.4912 606.724 56.3554 606.655 56.1823C606.513 55.8307 606.691 55.4582 607.054 55.35C607.283 55.2816 612.74 53.6902 619.617 55.1289C620.002 55.2091 620.269 55.5656 620.212 55.9247C620.155 56.2838 619.797 56.5096 619.411 56.429C612.921 55.0713 607.62 56.6079 607.568 56.6235C607.384 56.6782 607.188 56.6542 607.021 56.5715V56.5715Z" fill="url(#paint19_linear)"/>
<path d="M614.481 60.3537C614.324 60.2637 614.198 60.1201 614.139 59.943C614.019 59.5835 614.22 59.2224 614.588 59.1363C614.821 59.082 620.365 57.8249 627.142 59.6781C627.521 59.7816 627.765 60.1537 627.687 60.5087C627.609 60.8636 627.237 61.0672 626.858 60.9634C620.462 59.2142 615.078 60.4263 615.024 60.4387C614.837 60.4823 614.643 60.4465 614.481 60.3537V60.3537Z" fill="url(#paint20_linear)"/>
<path d="M621.332 65.1496C621.18 65.0512 621.062 64.9008 621.013 64.7209C620.912 64.3554 621.132 64.0059 621.505 63.9399C621.74 63.8983 627.344 62.9448 634.01 65.1642C634.383 65.2882 634.607 65.673 634.51 66.0233C634.412 66.3734 634.03 66.5565 633.657 66.4322C627.365 64.3374 621.923 65.2547 621.869 65.2641C621.68 65.2973 621.488 65.2511 621.332 65.1496V65.1496Z" fill="url(#paint21_linear)"/>
<path d="M627.872 70.7827C627.721 70.6843 627.603 70.5339 627.553 70.354C627.453 69.9885 627.673 69.6389 628.046 69.573C628.281 69.5314 633.885 68.5779 640.551 70.7973C640.924 70.9213 641.148 71.3061 641.05 71.6564C640.953 72.0065 640.571 72.1896 640.198 72.0653C633.906 69.9705 628.464 70.8877 628.41 70.8972C628.221 70.9305 628.029 70.8841 627.872 70.7827V70.7827Z" fill="url(#paint22_linear)"/>
<path d="M617.819 69.7054C623.228 73.3975 627.999 77.3733 631.946 81.3638L627.181 58.947C626.643 58.5645 626.097 58.1852 625.545 57.8082L617.819 69.7054Z" fill="url(#paint23_linear)"/>
<path d="M602.103 82.1743L608.609 86.3995C608.935 86.611 609.371 86.5185 609.582 86.1928L627.065 59.2725C627.27 58.9556 627.19 58.5317 626.881 58.3145C625.827 57.5738 624.748 56.8439 623.644 56.1268C622.539 55.4097 621.434 54.7204 620.328 54.0589C620.004 53.8649 619.584 53.9643 619.379 54.281L601.896 81.2013C601.685 81.5271 601.777 81.9627 602.103 82.1743V82.1743Z" fill="url(#paint24_linear)"/>
<path opacity="0.5" d="M622.236 94.8368L622.855 95.239C625.107 96.7012 627.808 96.918 630.149 96.0624L628.001 85.9583L622.236 94.8368Z" fill="url(#paint25_linear)"/>
<path d="M605.291 103.409L569.601 80.2316C565.799 77.7625 564.718 72.6789 567.187 68.8768L574.132 58.1831C576.601 54.3811 581.684 53.3005 585.486 55.7696L621.177 78.9473C624.979 81.4163 626.059 86.5 623.59 90.302L616.646 100.996C614.177 104.798 609.093 105.878 605.291 103.409Z" fill="url(#paint26_linear)"/>
<path opacity="0.5" d="M621.177 78.9473L585.486 55.7696C581.684 53.3005 576.601 54.3811 574.132 58.1831L570.356 63.9978L574.48 83.4L605.291 103.409C609.093 105.878 614.177 104.798 616.646 100.996L623.59 90.302C626.059 86.5 624.979 81.4163 621.177 78.9473Z" fill="url(#paint27_linear)"/>
<path opacity="0.5" d="M621.177 78.9473L605.972 69.0729L590.086 93.5348L605.291 103.409C609.093 105.878 614.177 104.798 616.646 100.996L623.59 90.302C626.059 86.5 624.979 81.4163 621.177 78.9473Z" fill="url(#paint28_linear)"/>
<path d="M569.469 61.5213C569.305 62.8709 570.179 64.1263 571.502 64.4425C579.512 66.3575 588.896 70.4637 598.166 76.4835C607.436 82.5032 615.004 89.4058 620.011 95.9448C620.838 97.0243 622.341 97.3129 623.507 96.6135C628.681 93.5091 629.885 86.501 625.999 81.8846C621.049 76.0053 614.145 69.946 605.892 64.5867C597.639 59.2274 589.296 55.3842 581.911 53.2539C576.113 51.581 570.201 55.5309 569.469 61.5213V61.5213Z" fill="url(#paint29_linear)"/>
<path d="M628.24 87.1743C627.433 88.7366 626.196 90.1082 624.56 91.0894C623.394 91.7888 621.892 91.5003 621.065 90.4207C616.057 83.8818 608.489 76.9792 599.22 70.9594C589.95 64.9396 580.566 60.8334 572.555 58.9184C571.793 58.7362 571.181 58.2411 570.83 57.5966C570.125 58.7533 569.646 60.0772 569.469 61.5212C569.305 62.8708 570.18 64.1262 571.502 64.4423C579.512 66.3574 588.897 70.4636 598.166 76.4833C607.436 82.503 615.004 89.4057 620.011 95.9447C620.838 97.0242 622.341 97.3128 623.507 96.6133C626.922 94.5643 628.607 90.8146 628.24 87.1743V87.1743Z" fill="url(#paint30_linear)"/>
<path d="M581.677 61.2718C581.513 61.1969 581.374 61.0657 581.298 60.8951C581.145 60.5485 581.311 60.1701 581.669 60.0498C581.896 59.9738 587.297 58.2 594.218 59.4071C594.605 59.4744 594.884 59.8219 594.839 60.1827C594.794 60.5435 594.444 60.7812 594.056 60.7135C587.524 59.5745 582.278 61.2882 582.226 61.3057C582.043 61.3662 581.847 61.3489 581.677 61.2718V61.2718Z" fill="url(#paint31_linear)"/>
<path d="M589.457 64.7418C589.295 64.6615 589.161 64.5257 589.091 64.3525C588.949 64.0009 589.128 63.6284 589.49 63.5202C589.719 63.4518 595.176 61.8604 602.053 63.299C602.438 63.3791 602.705 63.7358 602.648 64.0949C602.591 64.454 602.233 64.6797 601.848 64.5992C595.357 63.2415 590.057 64.7781 590.004 64.7937C589.82 64.8486 589.624 64.8247 589.457 64.7418V64.7418Z" fill="url(#paint32_linear)"/>
<path d="M596.917 68.5241C596.76 68.4341 596.634 68.2904 596.575 68.1133C596.455 67.7538 596.656 67.3927 597.024 67.3067C597.257 67.2523 602.801 65.9952 609.578 67.8485C609.957 67.9518 610.202 68.3241 610.123 68.6792C610.045 69.0341 609.673 69.2377 609.294 69.1339C602.898 67.3847 597.514 68.5968 597.46 68.6092C597.273 68.6527 597.079 68.617 596.917 68.5241Z" fill="url(#paint33_linear)"/>
<path d="M603.768 73.3199C603.616 73.2215 603.498 73.0712 603.449 72.8912C603.348 72.5258 603.569 72.1762 603.941 72.1102C604.176 72.0686 609.78 71.1151 616.446 73.3346C616.82 73.4585 617.044 73.8434 616.946 74.1936C616.848 74.5438 616.466 74.7268 616.093 74.6025C609.802 72.5077 604.36 73.425 604.305 73.4344C604.116 73.4677 603.924 73.4214 603.768 73.3199V73.3199Z" fill="url(#paint34_linear)"/>
<path d="M610.309 78.953C610.157 78.8546 610.039 78.7042 609.99 78.5243C609.889 78.1588 610.11 77.8093 610.482 77.7433C610.717 77.7017 616.321 76.7482 622.987 78.9676C623.36 79.0916 623.584 79.4764 623.487 79.8267C623.389 80.1768 623.007 80.3599 622.634 80.2356C616.342 78.1408 610.901 79.0581 610.846 79.0675C610.657 79.1007 610.465 79.0545 610.309 78.953V78.953Z" fill="url(#paint35_linear)"/>
<path d="M600.255 77.8758C605.664 81.5679 610.435 85.5437 614.382 89.5342L609.617 67.1174C609.079 66.7349 608.533 66.3554 607.981 65.9786L600.255 77.8758Z" fill="url(#paint36_linear)"/>
<path d="M584.539 90.3446L591.046 94.5698C591.371 94.7814 591.807 94.6888 592.019 94.363L609.501 67.4427C609.707 67.1258 609.626 66.702 609.317 66.4846C608.264 65.7439 607.184 65.0139 606.08 64.2969C604.976 63.5799 603.87 62.8905 602.764 62.229C602.44 62.0349 602.02 62.1344 601.815 62.4512L584.332 89.3715C584.121 89.6974 584.214 90.133 584.539 90.3446Z" fill="url(#paint37_linear)"/>
<path d="M617.667 138.667L629.333 127L629.333 127C635.899 137.943 645.057 147.101 656 153.667H656L644.333 165.333V165.333C637.768 154.391 628.609 145.232 617.667 138.667L617.667 138.667Z" fill="#808080"/>
<path d="M686 97L622.667 160.333L617.667 155.333L679.758 90.7584L686 97Z" fill="#BC8D5D"/>
<path d="M707.667 75.3333L686 97L679.758 90.7583L701 68.6667L707.667 75.3333Z" fill="#A1764A"/>
<path d="M714.333 82L692.242 103.242L686 97L707.667 75.3333L714.333 82Z" fill="#8C6231"/>
<path d="M692.242 103.242L627.667 165.333L622.667 160.333L686 97L692.242 103.242Z" fill="#A1764A"/>
<path d="M716 82.0164C716.002 81.7948 715.96 81.575 715.876 81.3698C715.792 81.1647 715.668 80.9783 715.512 80.8216L702.178 67.4882C702.022 67.3307 701.836 67.2063 701.631 67.1225C701.425 67.0386 701.205 66.997 700.984 67.0002C700.762 67.0023 700.543 67.0487 700.34 67.1365C700.136 67.2243 699.952 67.3518 699.799 67.5115L636.039 133.822C634.125 131.372 632.363 128.807 630.762 126.143C630.632 125.925 630.454 125.741 630.242 125.603C630.029 125.465 629.788 125.377 629.537 125.346C629.286 125.315 629.03 125.342 628.791 125.424C628.551 125.507 628.334 125.642 628.155 125.822L616.488 137.488C616.309 137.667 616.173 137.885 616.091 138.124C616.008 138.364 615.982 138.619 616.013 138.87C616.043 139.122 616.131 139.363 616.269 139.575C616.407 139.787 616.592 139.966 616.809 140.096C619.566 141.752 622.216 143.58 624.742 145.571L616.465 154.178C616.163 154.493 615.996 154.913 616 155.35C616.004 155.786 616.18 156.203 616.488 156.512L626.488 166.512C626.797 166.82 627.214 166.996 627.65 167C628.087 167.004 628.507 166.837 628.822 166.535L637.429 158.258C639.42 160.784 641.248 163.434 642.904 166.191C643.034 166.408 643.213 166.593 643.425 166.731C643.637 166.869 643.878 166.957 644.13 166.988C644.381 167.018 644.636 166.992 644.876 166.909C645.115 166.827 645.333 166.691 645.512 166.512L657.178 154.845C657.358 154.666 657.493 154.449 657.576 154.209C657.658 153.97 657.685 153.714 657.654 153.463C657.623 153.212 657.535 152.971 657.397 152.758C657.259 152.546 657.075 152.368 656.857 152.238C654.193 150.637 651.628 148.875 649.178 146.961L715.488 83.2014C715.648 83.0478 715.776 82.8639 715.864 82.6604C715.951 82.457 715.998 82.238 716 82.0164V82.0164ZM701.023 71.0471L705.31 75.3334L686 94.6431L682.092 90.7354L701.023 71.0471ZM620.334 138.357L629.023 129.667C630.472 131.939 632.034 134.135 633.705 136.249L627.063 143.156C624.905 141.441 622.658 139.839 620.334 138.357V138.357ZM620.001 155.31L679.782 93.1386L683.643 97.0001L622.667 157.976L620.001 155.31ZM627.69 162.999L625.024 160.333L686 99.357L689.861 103.219L627.69 162.999ZM653.333 153.977L644.643 162.666C643.161 160.342 641.559 158.095 639.844 155.937L646.751 149.295C648.865 150.966 651.062 152.528 653.333 153.977V153.977ZM692.265 100.908L688.357 97.0001L707.667 77.6904L711.953 81.9768L692.265 100.908Z" fill="black"/>
<path d="M573.875 149.203H576.188V157.953C576.188 163.307 574.906 167.245 572.344 169.766C570.385 171.661 567.844 173.286 564.719 174.641C564.427 174.078 563.865 173.286 563.031 172.266C569.135 170.161 572.583 166.911 573.375 162.516C571.375 163.391 569.01 164.474 566.281 165.766C565.635 166.12 565.188 166.411 564.938 166.641L563.594 164.703C564.177 164.161 564.469 163.391 564.469 162.391V146.797C568.719 146.089 572.375 145.193 575.438 144.109L576.75 146.141C573.875 147.057 570.531 147.839 566.719 148.484V162.922C569.49 161.797 571.844 160.807 573.781 159.953C573.844 159.224 573.875 158.464 573.875 157.672V149.203ZM579.969 146.047H591.469V164.047C591.469 166.734 590.135 168.089 587.469 168.109C585.865 168.151 584.615 168.161 583.719 168.141C583.635 167.224 583.479 166.328 583.25 165.453C584.479 165.578 585.635 165.651 586.719 165.672C588.344 165.672 589.156 164.891 589.156 163.328V148.297H582.281V174.297H579.969V146.047ZM583.469 152.703L585.531 152.109C586.385 154.234 587.208 156.651 588 159.359L585.594 159.984C584.927 157.422 584.219 154.995 583.469 152.703ZM568.344 151.391L570.375 150.766C571.25 153.62 571.875 155.849 572.25 157.453L570.062 158.078C569.646 155.995 569.073 153.766 568.344 151.391Z" fill="white"/>
<path d="M49.6406 151.227C46.6406 152.867 42.5859 153.688 37.4766 153.688C23.5547 153.688 16.5938 145.977 16.5938 130.555V85.625H3.23438V74.2344H16.5938V55.5312L30.3047 51.1719V74.2344H49.6406V85.625H30.3047V128.094C30.3047 133.203 31.1719 136.859 32.9062 139.062C34.6406 141.266 37.5234 142.367 41.5547 142.367C44.6484 142.367 47.3438 141.5 49.6406 139.766V151.227ZM67.8516 79.6484C75.5859 74.8203 84.5156 72.4062 94.6406 72.4062C113.391 72.4062 122.766 82.25 122.766 101.938V152H109.125V139.977H108.773C103.383 149.211 95.4375 153.828 84.9375 153.828C77.3906 153.828 71.3906 151.789 66.9375 147.711C62.4844 143.633 60.2578 138.125 60.2578 131.188C60.2578 116.656 68.8594 108.195 86.0625 105.805L109.125 102.57C109.125 89.8672 103.875 83.5156 93.375 83.5156C84.0469 83.5156 75.5391 86.6562 67.8516 92.9375V79.6484ZM90.9141 115.438C84.5391 116.281 80.1328 117.875 77.6953 120.219C75.3047 122.562 74.1094 125.844 74.1094 130.062C74.1094 133.766 75.4219 136.789 78.0469 139.133C80.6719 141.477 84.1406 142.648 88.4531 142.648C94.4531 142.648 99.3984 140.539 103.289 136.32C107.18 132.102 109.125 126.805 109.125 120.43V112.977L90.9141 115.438ZM257.555 152H243.773V107.352C243.773 98.9141 242.461 92.8906 239.836 89.2812C237.211 85.625 232.898 83.7969 226.898 83.7969C221.836 83.7969 217.5 86.1641 213.891 90.8984C210.281 95.6328 208.477 101.234 208.477 107.703V152H194.695V105.945C194.695 91.1797 189 83.7969 177.609 83.7969C172.359 83.7969 168 86.0469 164.531 90.5469C161.109 95.0469 159.398 100.789 159.398 107.773V152H145.617V74.2344H159.398V86.5391H159.68C165.211 77.1172 173.297 72.4062 183.938 72.4062C189.141 72.4062 193.734 73.8359 197.719 76.6953C201.703 79.5547 204.469 83.4219 206.016 88.2969C211.781 77.7031 220.406 72.4062 231.891 72.4062C249 72.4062 257.555 82.9531 257.555 104.047V152ZM282.445 79.6484C290.18 74.8203 299.109 72.4062 309.234 72.4062C327.984 72.4062 337.359 82.25 337.359 101.938V152H323.719V139.977H323.367C317.977 149.211 310.031 153.828 299.531 153.828C291.984 153.828 285.984 151.789 281.531 147.711C277.078 143.633 274.852 138.125 274.852 131.188C274.852 116.656 283.453 108.195 300.656 105.805L323.719 102.57C323.719 89.8672 318.469 83.5156 307.969 83.5156C298.641 83.5156 290.133 86.6562 282.445 92.9375V79.6484ZM305.508 115.438C299.133 116.281 294.727 117.875 292.289 120.219C289.898 122.562 288.703 125.844 288.703 130.062C288.703 133.766 290.016 136.789 292.641 139.133C295.266 141.477 298.734 142.648 303.047 142.648C309.047 142.648 313.992 140.539 317.883 136.32C321.773 132.102 323.719 126.805 323.719 120.43V112.977L305.508 115.438ZM427.711 145.461C427.711 174.242 413.742 188.633 385.805 188.633C376.148 188.633 367.758 186.828 360.633 183.219V169.93C369.305 174.758 377.625 177.172 385.594 177.172C404.484 177.172 413.93 167.234 413.93 147.359V139.133H413.648C407.742 148.93 398.93 153.828 387.211 153.828C377.461 153.828 369.656 150.336 363.797 143.352C357.938 136.367 355.008 127.109 355.008 115.578C355.008 102.312 358.242 91.8125 364.711 84.0781C371.18 76.2969 379.805 72.4062 390.586 72.4062C400.945 72.4062 408.633 76.5312 413.648 84.7812H413.93V74.2344H427.711V145.461ZM413.93 105.734C413.977 99.7344 411.961 94.5781 407.883 90.2656C403.805 85.9531 398.789 83.7969 392.836 83.7969C385.336 83.7969 379.5 86.5625 375.328 92.0938C371.156 97.5781 369.07 105.125 369.07 114.734C369.07 122.984 371.086 129.664 375.117 134.773C379.148 139.883 384.492 142.438 391.148 142.438C397.852 142.438 403.336 140 407.602 135.125C411.867 130.25 413.977 124.062 413.93 116.562V105.734ZM447.117 113.961C447.117 101.117 450.703 90.9922 457.875 83.5859C465.047 76.1328 474.773 72.4062 487.055 72.4062C498.727 72.4062 507.867 75.9922 514.477 83.1641C521.133 90.2891 524.461 100.156 524.461 112.766C524.461 125.047 520.922 134.961 513.844 142.508C506.766 150.055 497.273 153.828 485.367 153.828C473.742 153.828 464.461 150.172 457.523 142.859C450.586 135.547 447.117 125.914 447.117 113.961ZM461.18 113.539C461.18 122.492 463.43 129.547 467.93 134.703C472.477 139.859 478.57 142.438 486.211 142.438C494.086 142.438 500.086 139.93 504.211 134.914C508.336 129.852 510.398 122.609 510.398 113.188C510.398 103.719 508.336 96.4531 504.211 91.3906C500.086 86.3281 494.086 83.7969 486.211 83.7969C478.477 83.7969 472.359 86.4453 467.859 91.7422C463.406 97.0391 461.18 104.305 461.18 113.539Z" fill="black"/>
<defs>
<linearGradient id="paint0_linear" x1="627.608" y1="67.7267" x2="624.006" y2="73.2742" gradientUnits="userSpaceOnUse">
<stop stop-color="#F8F6FB"/>
<stop offset="1" stop-color="#EFDCFB"/>
</linearGradient>
<linearGradient id="paint1_linear" x1="626.897" y1="70.4003" x2="636.218" y2="53.2677" gradientUnits="userSpaceOnUse">
<stop stop-color="#EFDCFB" stop-opacity="0"/>
<stop offset="0.2889" stop-color="#C7B6DF" stop-opacity="0.289"/>
<stop offset="0.5915" stop-color="#A495C7" stop-opacity="0.592"/>
<stop offset="0.8395" stop-color="#8E80B7" stop-opacity="0.84"/>
<stop offset="1" stop-color="#8679B2"/>
</linearGradient>
<linearGradient id="paint2_linear" x1="644.272" y1="72.7468" x2="634.226" y2="64.5124" gradientUnits="userSpaceOnUse">
<stop stop-color="#EFDCFB" stop-opacity="0"/>
<stop offset="0.2889" stop-color="#C7B6DF" stop-opacity="0.289"/>
<stop offset="0.5915" stop-color="#A495C7" stop-opacity="0.592"/>
<stop offset="0.8395" stop-color="#8E80B7" stop-opacity="0.84"/>
<stop offset="1" stop-color="#8679B2"/>
</linearGradient>
<linearGradient id="paint3_linear" x1="638.328" y1="52.3897" x2="629.59" y2="65.8461" gradientUnits="userSpaceOnUse">
<stop stop-color="#FF7044"/>
<stop offset="1" stop-color="#F82814"/>
</linearGradient>
<linearGradient id="paint4_linear" x1="636.24" y1="52.6477" x2="625.682" y2="82.66" gradientUnits="userSpaceOnUse">
<stop stop-color="#F82814" stop-opacity="0"/>
<stop offset="1" stop-color="#C0272D"/>
</linearGradient>
<linearGradient id="paint5_linear" x1="623.27" y1="44.5084" x2="621.777" y2="38.0851" gradientUnits="userSpaceOnUse">
<stop stop-color="#FF7044"/>
<stop offset="1" stop-color="#F82814"/>
</linearGradient>
<linearGradient id="paint6_linear" x1="631.07" y1="48.1697" x2="629.793" y2="41.7026" gradientUnits="userSpaceOnUse">
<stop stop-color="#FF7044"/>
<stop offset="1" stop-color="#F82814"/>
</linearGradient>
<linearGradient id="paint7_linear" x1="638.528" y1="52.4099" x2="637.648" y2="45.8711" gradientUnits="userSpaceOnUse">
<stop stop-color="#FF7044"/>
<stop offset="1" stop-color="#F82814"/>
</linearGradient>
<linearGradient id="paint8_linear" x1="645.363" y1="57.52" x2="644.838" y2="50.9455" gradientUnits="userSpaceOnUse">
<stop stop-color="#FF7044"/>
<stop offset="1" stop-color="#F82814"/>
</linearGradient>
<linearGradient id="paint9_linear" x1="651.904" y1="63.153" x2="651.379" y2="56.5787" gradientUnits="userSpaceOnUse">
<stop stop-color="#FF7044"/>
<stop offset="1" stop-color="#F82814"/>
</linearGradient>
<linearGradient id="paint10_linear" x1="646.04" y1="64.4473" x2="637.542" y2="52.6575" gradientUnits="userSpaceOnUse">
<stop stop-color="#F82814" stop-opacity="0"/>
<stop offset="1" stop-color="#C0272D"/>
</linearGradient>
<linearGradient id="paint11_linear" x1="627.831" y1="59.2876" x2="637.116" y2="65.3175" gradientUnits="userSpaceOnUse">
<stop stop-color="#534854"/>
<stop offset="1" stop-color="#342434"/>
</linearGradient>
<linearGradient id="paint12_linear" x1="648.082" y1="90.9858" x2="640.038" y2="77.8974" gradientUnits="userSpaceOnUse">
<stop stop-color="#EFDCFB" stop-opacity="0"/>
<stop offset="0.2889" stop-color="#C7B6DF" stop-opacity="0.289"/>
<stop offset="0.5915" stop-color="#A495C7" stop-opacity="0.592"/>
<stop offset="0.8395" stop-color="#8E80B7" stop-opacity="0.84"/>
<stop offset="1" stop-color="#8679B2"/>
</linearGradient>
<linearGradient id="paint13_linear" x1="610.045" y1="75.8972" x2="606.442" y2="81.4445" gradientUnits="userSpaceOnUse">
<stop stop-color="#F8F6FB"/>
<stop offset="1" stop-color="#EFDCFB"/>
</linearGradient>
<linearGradient id="paint14_linear" x1="609.333" y1="78.5706" x2="618.654" y2="61.438" gradientUnits="userSpaceOnUse">
<stop stop-color="#EFDCFB" stop-opacity="0"/>
<stop offset="0.2889" stop-color="#C7B6DF" stop-opacity="0.289"/>
<stop offset="0.5915" stop-color="#A495C7" stop-opacity="0.592"/>
<stop offset="0.8395" stop-color="#8E80B7" stop-opacity="0.84"/>
<stop offset="1" stop-color="#8679B2"/>
</linearGradient>
<linearGradient id="paint15_linear" x1="626.708" y1="80.9172" x2="616.662" y2="72.6827" gradientUnits="userSpaceOnUse">
<stop stop-color="#EFDCFB" stop-opacity="0"/>
<stop offset="0.2889" stop-color="#C7B6DF" stop-opacity="0.289"/>
<stop offset="0.5915" stop-color="#A495C7" stop-opacity="0.592"/>
<stop offset="0.8395" stop-color="#8E80B7" stop-opacity="0.84"/>
<stop offset="1" stop-color="#8679B2"/>
</linearGradient>
<linearGradient id="paint16_linear" x1="620.765" y1="60.5602" x2="612.026" y2="74.0164" gradientUnits="userSpaceOnUse">
<stop stop-color="#FF7044"/>
<stop offset="1" stop-color="#F82814"/>
</linearGradient>
<linearGradient id="paint17_linear" x1="618.676" y1="60.818" x2="608.118" y2="90.8303" gradientUnits="userSpaceOnUse">
<stop stop-color="#F82814" stop-opacity="0"/>
<stop offset="1" stop-color="#C0272D"/>
</linearGradient>
<linearGradient id="paint18_linear" x1="605.705" y1="52.6752" x2="604.212" y2="46.2517" gradientUnits="userSpaceOnUse">
<stop stop-color="#FF7044"/>
<stop offset="1" stop-color="#F82814"/>
</linearGradient>
<linearGradient id="paint19_linear" x1="613.514" y1="56.3394" x2="612.237" y2="49.8724" gradientUnits="userSpaceOnUse">
<stop stop-color="#FF7044"/>
<stop offset="1" stop-color="#F82814"/>
</linearGradient>
<linearGradient id="paint20_linear" x1="620.952" y1="60.5766" x2="620.072" y2="54.0377" gradientUnits="userSpaceOnUse">
<stop stop-color="#FF7044"/>
<stop offset="1" stop-color="#F82814"/>
</linearGradient>
<linearGradient id="paint21_linear" x1="627.8" y1="65.6903" x2="627.274" y2="59.1159" gradientUnits="userSpaceOnUse">
<stop stop-color="#FF7044"/>
<stop offset="1" stop-color="#F82814"/>
</linearGradient>
<linearGradient id="paint22_linear" x1="634.34" y1="71.3234" x2="633.815" y2="64.749" gradientUnits="userSpaceOnUse">
<stop stop-color="#FF7044"/>
<stop offset="1" stop-color="#F82814"/>
</linearGradient>
<linearGradient id="paint23_linear" x1="628.476" y1="72.6176" x2="619.979" y2="60.8278" gradientUnits="userSpaceOnUse">
<stop stop-color="#F82814" stop-opacity="0"/>
<stop offset="1" stop-color="#C0272D"/>
</linearGradient>
<linearGradient id="paint24_linear" x1="610.267" y1="67.4579" x2="619.552" y2="73.4878" gradientUnits="userSpaceOnUse">
<stop stop-color="#534854"/>
<stop offset="1" stop-color="#342434"/>
</linearGradient>
<linearGradient id="paint25_linear" x1="630.497" y1="99.1491" x2="622.453" y2="86.0605" gradientUnits="userSpaceOnUse">
<stop stop-color="#EFDCFB" stop-opacity="0"/>
<stop offset="0.2889" stop-color="#C7B6DF" stop-opacity="0.289"/>
<stop offset="0.5915" stop-color="#A495C7" stop-opacity="0.592"/>
<stop offset="0.8395" stop-color="#8E80B7" stop-opacity="0.84"/>
<stop offset="1" stop-color="#8679B2"/>
</linearGradient>
<linearGradient id="paint26_linear" x1="592.481" y1="84.0674" x2="588.878" y2="89.6147" gradientUnits="userSpaceOnUse">
<stop stop-color="#F8F6FB"/>
<stop offset="1" stop-color="#EFDCFB"/>
</linearGradient>
<linearGradient id="paint27_linear" x1="591.77" y1="86.7411" x2="601.09" y2="69.6083" gradientUnits="userSpaceOnUse">
<stop stop-color="#EFDCFB" stop-opacity="0"/>
<stop offset="0.2889" stop-color="#C7B6DF" stop-opacity="0.289"/>
<stop offset="0.5915" stop-color="#A495C7" stop-opacity="0.592"/>
<stop offset="0.8395" stop-color="#8E80B7" stop-opacity="0.84"/>
<stop offset="1" stop-color="#8679B2"/>
</linearGradient>
<linearGradient id="paint28_linear" x1="609.144" y1="89.0875" x2="599.098" y2="80.853" gradientUnits="userSpaceOnUse">
<stop stop-color="#EFDCFB" stop-opacity="0"/>
<stop offset="0.2889" stop-color="#C7B6DF" stop-opacity="0.289"/>
<stop offset="0.5915" stop-color="#A495C7" stop-opacity="0.592"/>
<stop offset="0.8395" stop-color="#8E80B7" stop-opacity="0.84"/>
<stop offset="1" stop-color="#8679B2"/>
</linearGradient>
<linearGradient id="paint29_linear" x1="603.201" y1="68.7305" x2="594.462" y2="82.1868" gradientUnits="userSpaceOnUse">
<stop stop-color="#FF7044"/>
<stop offset="1" stop-color="#F82814"/>
</linearGradient>
<linearGradient id="paint30_linear" x1="601.112" y1="68.9883" x2="590.554" y2="99.0006" gradientUnits="userSpaceOnUse">
<stop stop-color="#F82814" stop-opacity="0"/>
<stop offset="1" stop-color="#C0272D"/>
</linearGradient>
<linearGradient id="paint31_linear" x1="588.14" y1="60.8418" x2="586.647" y2="54.4185" gradientUnits="userSpaceOnUse">
<stop stop-color="#FF7044"/>
<stop offset="1" stop-color="#F82814"/>
</linearGradient>
<linearGradient id="paint32_linear" x1="595.959" y1="64.5092" x2="594.681" y2="58.0422" gradientUnits="userSpaceOnUse">
<stop stop-color="#FF7044"/>
<stop offset="1" stop-color="#F82814"/>
</linearGradient>
<linearGradient id="paint33_linear" x1="603.377" y1="68.7434" x2="602.497" y2="62.2045" gradientUnits="userSpaceOnUse">
<stop stop-color="#FF7044"/>
<stop offset="1" stop-color="#F82814"/>
</linearGradient>
<linearGradient id="paint34_linear" x1="610.236" y1="73.8606" x2="609.71" y2="67.2863" gradientUnits="userSpaceOnUse">
<stop stop-color="#FF7044"/>
<stop offset="1" stop-color="#F82814"/>
</linearGradient>
<linearGradient id="paint35_linear" x1="616.777" y1="79.4937" x2="616.251" y2="72.9193" gradientUnits="userSpaceOnUse">
<stop stop-color="#FF7044"/>
<stop offset="1" stop-color="#F82814"/>
</linearGradient>
<linearGradient id="paint36_linear" x1="610.912" y1="80.7878" x2="602.415" y2="68.9981" gradientUnits="userSpaceOnUse">
<stop stop-color="#F82814" stop-opacity="0"/>
<stop offset="1" stop-color="#C0272D"/>
</linearGradient>
<linearGradient id="paint37_linear" x1="592.703" y1="75.6282" x2="601.988" y2="81.658" gradientUnits="userSpaceOnUse">
<stop stop-color="#534854"/>
<stop offset="1" stop-color="#342434"/>
</linearGradient>
</defs>
</svg>
