<svg width="163" height="170" viewBox="0 0 163 170" fill="none" xmlns="http://www.w3.org/2000/svg">
<rect width="122" height="170" rx="11" fill="#E23638"/>
<path d="M87.4188 72.0686L51.7283 48.8909C47.9263 46.4218 46.8457 41.3382 49.3148 37.5362L56.2594 26.8424C58.7284 23.0404 63.8121 21.9599 67.6141 24.4289L103.305 47.6066C107.107 50.0756 108.187 55.1593 105.718 58.9613L98.7735 69.655C96.3045 73.4571 91.2208 74.5376 87.4188 72.0686Z" fill="url(#paint0_linear)"/>
<path opacity="0.5" d="M103.305 47.6066L67.6141 24.4289C63.8121 21.9599 58.7284 23.0404 56.2594 26.8424L52.4833 32.6571L56.6074 52.0594L87.4188 72.0686C91.2208 74.5376 96.3045 73.4571 98.7735 69.655L105.718 58.9613C108.187 55.1593 107.107 50.0756 103.305 47.6066V47.6066Z" fill="url(#paint1_linear)"/>
<path opacity="0.5" d="M103.305 47.6066L88.0994 37.7322L72.2136 62.1941L87.4188 72.0685C91.2208 74.5376 96.3045 73.457 98.7735 69.655L105.718 58.9613C108.187 55.1593 107.107 50.0756 103.305 47.6066V47.6066Z" fill="url(#paint2_linear)"/>
<path d="M51.597 30.1806C51.4323 31.5302 52.3071 32.7856 53.6296 33.1017C61.6401 35.0168 71.0242 39.123 80.2936 45.1427C89.5631 51.1624 97.1313 58.0651 102.139 64.604C102.966 65.6836 104.468 65.9721 105.634 65.2727C110.809 62.1683 112.013 55.1603 108.126 50.5438C103.177 44.6645 96.2722 38.6053 88.0195 33.2459C79.7669 27.8866 71.4231 24.0435 64.0389 21.9131C58.2408 20.2404 52.3283 24.1903 51.597 30.1806V30.1806Z" fill="url(#paint3_linear)"/>
<path d="M110.368 55.8337C109.561 57.396 108.323 58.7675 106.688 59.7488C105.522 60.4482 104.019 60.1597 103.192 59.0801C98.1846 52.5411 90.6166 45.6385 81.3471 39.6188C72.0776 33.5991 62.6935 29.4928 54.6831 27.5778C53.9208 27.3956 53.309 26.9004 52.9574 26.256C52.253 27.4127 51.7732 28.7365 51.597 30.1806C51.4323 31.5302 52.3071 32.7856 53.6296 33.1017C61.6401 35.0168 71.0242 39.123 80.2936 45.1427C89.5631 51.1624 97.1313 58.0651 102.139 64.604C102.966 65.6836 104.468 65.9722 105.634 65.2727C109.05 63.2236 110.734 59.4738 110.368 55.8337V55.8337Z" fill="url(#paint4_linear)"/>
<path d="M63.805 29.9311C63.6405 29.8562 63.5015 29.725 63.426 29.5544C63.2726 29.2078 63.4385 28.8294 63.797 28.7091C64.0235 28.6331 69.4245 26.8593 76.3457 28.0664C76.733 28.1337 77.0116 28.4812 76.9669 28.842C76.9223 29.2028 76.5718 29.4404 76.184 29.3728C69.6516 28.2338 64.4056 29.9475 64.3534 29.965C64.1712 30.0257 63.9746 30.0082 63.805 29.9311V29.9311Z" fill="url(#paint5_linear)"/>
<path d="M71.5849 33.4011C71.423 33.3208 71.2885 33.185 71.2187 33.0118C71.077 32.6602 71.2555 32.2877 71.6178 32.1795C71.8467 32.1111 77.3042 30.5197 84.1811 31.9584C84.566 32.0385 84.8327 32.3951 84.7758 32.7542C84.7192 33.1133 84.3608 33.3391 83.9756 33.2585C77.4852 31.9008 72.1845 33.4374 72.1318 33.453C71.9475 33.5079 71.7517 33.484 71.5849 33.4011Z" fill="url(#paint6_linear)"/>
<path d="M79.045 37.1834C78.8882 37.0934 78.7622 36.9497 78.7031 36.7726C78.583 36.4131 78.7838 36.0521 79.1521 35.966C79.3847 35.9116 84.9288 34.6545 91.7056 36.5078C92.0848 36.6113 92.3294 36.9833 92.251 37.3383C92.1726 37.6933 91.8012 37.8969 91.4216 37.793C85.0255 36.0437 79.6414 37.2559 79.5878 37.2682C79.4006 37.312 79.2064 37.2762 79.045 37.1834V37.1834Z" fill="url(#paint7_linear)"/>
<path d="M85.8954 41.9793C85.7439 41.8809 85.6257 41.7305 85.5764 41.5506C85.4761 41.1851 85.6962 40.8355 86.0685 40.7696C86.3038 40.728 91.908 39.7745 98.574 41.9939C98.9471 42.1178 99.1711 42.5027 99.0734 42.853C98.9758 43.2031 98.5939 43.3862 98.2206 43.2619C91.9291 41.1671 86.4872 42.0843 86.4328 42.0938C86.2436 42.1271 86.0516 42.0807 85.8954 41.9793V41.9793Z" fill="url(#paint8_linear)"/>
<path d="M92.4364 47.6122C92.2848 47.5138 92.1667 47.3635 92.1173 47.1835C92.0171 46.818 92.2371 46.4685 92.6095 46.4025C92.8448 46.3609 98.449 45.4074 105.115 47.6269C105.488 47.7508 105.712 48.1357 105.614 48.4859C105.517 48.8361 105.135 49.0191 104.762 48.8948C98.4701 46.8 93.0282 47.7173 92.9738 47.7267C92.7846 47.76 92.5927 47.7138 92.4364 47.6122V47.6122Z" fill="url(#paint9_linear)"/>
<path d="M82.3827 46.5351C87.7914 50.2272 92.5625 54.2031 96.5101 58.1936L91.7452 35.7767C91.2067 35.3942 90.6608 35.0147 90.1088 34.6379L82.3827 46.5351Z" fill="url(#paint10_linear)"/>
<path d="M66.667 59.0041L73.1733 63.2293C73.499 63.4408 73.9347 63.3482 74.1462 63.0225L91.6285 36.1022C91.8342 35.7853 91.7541 35.3614 91.4452 35.1441C90.3913 34.4034 89.3117 33.6734 88.2076 32.9564C87.1035 32.2394 85.9976 31.5501 84.8921 30.8885C84.5678 30.6944 84.1481 30.7938 83.9423 31.1107L66.46 58.031C66.2485 58.3568 66.3411 58.7924 66.667 59.0041V59.0041Z" fill="url(#paint11_linear)"/>
<path opacity="0.5" d="M86.8205 71.6735L87.4398 72.0757C89.6914 73.5379 92.3925 73.7547 94.7339 72.8991L92.5862 62.795L86.8205 71.6735Z" fill="url(#paint12_linear)"/>
<path d="M69.8549 80.239L34.1644 57.0613C30.3624 54.5923 29.2819 49.5086 31.7509 45.7066L38.6955 35.0129C41.1646 31.2109 46.2482 30.1303 50.0502 32.5994L85.7407 55.777C89.5427 58.2461 90.6233 63.3297 88.1542 67.1318L81.2096 77.8255C78.7407 81.6274 73.6568 82.708 69.8549 80.239Z" fill="url(#paint13_linear)"/>
<path opacity="0.5" d="M85.7408 55.7769L50.0503 32.5992C46.2483 30.1301 41.1647 31.2107 38.6956 35.0127L34.9195 40.8274L39.0436 60.2297L69.855 80.2388C73.657 82.7079 78.7407 81.6273 81.2097 77.8253L88.1543 67.1316C90.6234 63.3296 89.5427 58.2458 85.7408 55.7769Z" fill="url(#paint14_linear)"/>
<path opacity="0.5" d="M85.7408 55.7769L70.5356 45.9025L54.6498 70.3645L69.855 80.2388C73.657 82.7079 78.7407 81.6274 81.2097 77.8253L88.1543 67.1316C90.6234 63.3296 89.5427 58.2458 85.7408 55.7769Z" fill="url(#paint15_linear)"/>
<path d="M34.0332 38.3509C33.8685 39.7005 34.7433 40.9559 36.0658 41.272C44.0762 43.187 53.4604 47.2933 62.7299 53.313C71.9993 59.3327 79.5675 66.2354 84.5751 72.7743C85.4018 73.8539 86.9045 74.1424 88.0704 73.443C93.2454 70.3385 94.449 63.3306 90.5625 58.7141C85.6131 52.8349 78.7084 46.7756 70.4557 41.4162C62.203 36.0569 53.8594 32.2138 46.4751 30.0834C40.6769 28.4108 34.7643 32.3606 34.0332 38.3509Z" fill="url(#paint16_linear)"/>
<path d="M92.8038 64.004C91.9969 65.5663 90.7594 66.9378 89.1239 67.9191C87.958 68.6185 86.4553 68.3299 85.6286 67.2504C80.621 60.7114 73.053 53.8088 63.7833 47.7891C54.5137 41.7693 45.1297 37.6631 37.1193 35.7481C36.3571 35.5658 35.7452 35.0707 35.3936 34.4263C34.6892 35.583 34.2095 36.9068 34.0332 38.3509C33.8685 39.7005 34.7433 40.9559 36.0658 41.272C44.0762 43.187 53.4604 47.2933 62.7299 53.313C71.9993 59.3327 79.5675 66.2354 84.5751 72.7743C85.4018 73.8539 86.9045 74.1424 88.0704 73.443C91.4862 71.3939 93.1703 67.6443 92.8038 64.004Z" fill="url(#paint17_linear)"/>
<path d="M46.2411 38.1013C46.0766 38.0264 45.9376 37.8953 45.8621 37.7246C45.7086 37.378 45.8746 36.9997 46.233 36.8793C46.4596 36.8033 51.8605 35.0296 58.7818 36.2367C59.1691 36.3039 59.4477 36.6514 59.4029 37.0123C59.3584 37.3731 59.0078 37.6106 58.6201 37.5431C52.0877 36.404 46.8417 38.1177 46.7894 38.1352C46.6074 38.196 46.4108 38.1786 46.2411 38.1013V38.1013Z" fill="url(#paint18_linear)"/>
<path d="M54.0208 41.5715C53.859 41.4912 53.7244 41.3554 53.6546 41.1823C53.5129 40.8307 53.6913 40.4582 54.0537 40.35C54.2826 40.2816 59.7401 38.6902 66.6169 40.1289C67.0017 40.2091 67.2685 40.5656 67.2117 40.9247C67.1551 41.2838 66.7967 41.5096 66.4115 41.429C59.9211 40.0713 54.6204 41.6079 54.5677 41.6235C54.3838 41.6782 54.1878 41.6542 54.0208 41.5715V41.5715Z" fill="url(#paint19_linear)"/>
<path d="M61.4809 45.3537C61.3242 45.2637 61.1982 45.1201 61.1391 44.943C61.019 44.5835 61.2197 44.2224 61.588 44.1363C61.8207 44.082 67.3647 42.8249 74.1415 44.6781C74.5208 44.7816 74.7655 45.1537 74.6869 45.5087C74.6086 45.8636 74.2371 46.0672 73.8577 45.9634C67.4616 44.2142 62.0776 45.4263 62.024 45.4387C61.8368 45.4823 61.6426 45.4465 61.4809 45.3537V45.3537Z" fill="url(#paint20_linear)"/>
<path d="M68.3316 50.1496C68.1801 50.0512 68.0619 49.9008 68.0126 49.7209C67.9123 49.3554 68.1324 49.0059 68.5047 48.9399C68.74 48.8983 74.3442 47.9448 81.0102 50.1642C81.3833 50.2882 81.6073 50.673 81.5096 51.0233C81.412 51.3734 81.0301 51.5565 80.6568 51.4322C74.3654 49.3374 68.9234 50.2547 68.8691 50.2641C68.6797 50.2973 68.4878 50.2511 68.3316 50.1496V50.1496Z" fill="url(#paint21_linear)"/>
<path d="M74.8725 55.7827C74.721 55.6843 74.6028 55.5339 74.5534 55.354C74.4532 54.9885 74.6733 54.6389 75.0456 54.573C75.2809 54.5314 80.8851 53.5779 87.551 55.7973C87.9242 55.9213 88.1482 56.3061 88.0505 56.6564C87.9528 57.0065 87.571 57.1896 87.1977 57.0653C80.9062 54.9705 75.4643 55.8877 75.4099 55.8972C75.2207 55.9305 75.0287 55.8841 74.8725 55.7827V55.7827Z" fill="url(#paint22_linear)"/>
<path d="M64.8189 54.7054C70.2276 58.3975 74.9986 62.3733 78.9463 66.3638L74.1814 43.947C73.6429 43.5645 73.097 43.1852 72.545 42.8082L64.8189 54.7054Z" fill="url(#paint23_linear)"/>
<path d="M49.1031 67.1743L55.6093 71.3995C55.9351 71.611 56.3709 71.5185 56.5824 71.1928L74.0647 44.2725C74.2705 43.9556 74.1904 43.5317 73.8813 43.3145C72.8274 42.5738 71.7479 41.8439 70.6437 41.1268C69.5395 40.4097 68.4335 39.7204 67.3282 39.0589C67.0041 38.8649 66.5842 38.9643 66.3785 39.281L48.8963 66.2013C48.6847 66.5271 48.7773 66.9627 49.1031 67.1743V67.1743Z" fill="url(#paint24_linear)"/>
<path opacity="0.5" d="M69.2356 79.8368L69.8549 80.239C72.1065 81.7012 74.8077 81.918 77.149 81.0624L75.0014 70.9583L69.2356 79.8368Z" fill="url(#paint25_linear)"/>
<path d="M52.291 88.4092L16.6006 65.2316C12.7985 62.7625 11.718 57.6789 14.187 53.8768L21.1316 43.1831C23.6007 39.3811 28.6843 38.3005 32.4864 40.7696L68.1768 63.9473C71.9789 66.4163 73.0594 71.5 70.5904 75.302L63.6458 85.9957C61.1767 89.7977 56.0931 90.8783 52.291 88.4092Z" fill="url(#paint26_linear)"/>
<path opacity="0.5" d="M68.1768 63.9473L32.4864 40.7696C28.6843 38.3005 23.6007 39.3811 21.1316 43.1831L17.3555 48.9978L21.4796 68.4L52.291 88.4092C56.0931 90.8783 61.1767 89.7977 63.6458 85.9957L70.5904 75.302C73.0594 71.5 71.9789 66.4163 68.1768 63.9473Z" fill="url(#paint27_linear)"/>
<path opacity="0.5" d="M68.1768 63.9473L52.9716 54.0729L37.0858 78.5348L52.291 88.4092C56.0931 90.8783 61.1767 89.7977 63.6458 85.9957L70.5904 75.302C73.0594 71.5 71.9789 66.4163 68.1768 63.9473Z" fill="url(#paint28_linear)"/>
<path d="M16.4694 46.5213C16.3047 47.8709 17.1795 49.1263 18.502 49.4425C26.5124 51.3575 35.8964 55.4637 45.166 61.4835C54.4357 67.5032 62.0037 74.4058 67.0113 80.9448C67.838 82.0243 69.3407 82.3129 70.5066 81.6135C75.6814 78.5091 76.8851 71.501 72.9987 66.8846C68.0492 61.0053 61.1446 54.946 52.8919 49.5867C44.6393 44.2274 36.2955 40.3842 28.9113 38.2539C23.1131 36.581 17.2005 40.5309 16.4694 46.5213V46.5213Z" fill="url(#paint29_linear)"/>
<path d="M75.2401 72.1743C74.4332 73.7366 73.1957 75.1082 71.5602 76.0894C70.3943 76.7888 68.8916 76.5003 68.0649 75.4207C63.0573 68.8818 55.4892 61.9792 46.2196 55.9594C36.95 49.9396 27.566 45.8334 19.5555 43.9184C18.7933 43.7362 18.1815 43.2411 17.8299 42.5966C17.1255 43.7533 16.6457 45.0772 16.4695 46.5212C16.3048 47.8708 17.1796 49.1262 18.5021 49.4423C26.5125 51.3574 35.8966 55.4636 45.1661 61.4833C54.4356 67.503 62.0038 74.4057 67.0114 80.9447C67.8381 82.0242 69.3408 82.3128 70.5067 81.6133C73.9224 79.5643 75.6066 75.8146 75.2401 72.1743V72.1743Z" fill="url(#paint30_linear)"/>
<path d="M28.6773 46.2718C28.5127 46.1969 28.3737 46.0657 28.2983 45.8951C28.1448 45.5485 28.3108 45.1701 28.6692 45.0498C28.8957 44.9738 34.2967 43.2 41.2179 44.4071C41.6053 44.4744 41.8838 44.8219 41.8391 45.1827C41.7945 45.5435 41.4439 45.7812 41.0562 45.7135C34.5239 44.5745 29.2778 46.2882 29.2256 46.3057C29.0435 46.3662 28.8468 46.3489 28.6773 46.2718V46.2718Z" fill="url(#paint31_linear)"/>
<path d="M36.4571 49.7418C36.2952 49.6615 36.1607 49.5257 36.0909 49.3525C35.9493 49.0009 36.1277 48.6284 36.4901 48.5202C36.719 48.4518 42.1764 46.8604 49.0533 48.299C49.4382 48.3791 49.7049 48.7358 49.648 49.0949C49.5914 49.454 49.2331 49.6797 48.8478 49.5992C42.3574 48.2415 37.0567 49.7781 37.0041 49.7937C36.8199 49.8486 36.6239 49.8247 36.4571 49.7418V49.7418Z" fill="url(#paint32_linear)"/>
<path d="M43.9172 53.5241C43.7604 53.4341 43.6344 53.2904 43.5753 53.1133C43.4553 52.7538 43.656 52.3927 44.0243 52.3067C44.2569 52.2523 49.801 50.9952 56.5778 52.8485C56.9571 52.9518 57.2018 53.3241 57.1231 53.6792C57.0448 54.0341 56.6733 54.2377 56.2939 54.1339C49.8978 52.3847 44.5137 53.5968 44.4601 53.6092C44.2728 53.6527 44.0787 53.617 43.9172 53.5241Z" fill="url(#paint33_linear)"/>
<path d="M50.7678 58.3199C50.6163 58.2215 50.4983 58.0712 50.4488 57.8912C50.3485 57.5258 50.5686 57.1762 50.941 57.1102C51.1763 57.0686 56.7805 56.1151 63.4464 58.3346C63.8195 58.4585 64.0435 58.8434 63.9458 59.1936C63.8482 59.5438 63.4664 59.7268 63.0931 59.6025C56.8016 57.5077 51.3597 58.425 51.3053 58.4344C51.1159 58.4677 50.9241 58.4214 50.7678 58.3199V58.3199Z" fill="url(#paint34_linear)"/>
<path d="M57.3087 63.953C57.1572 63.8546 57.0391 63.7042 56.9897 63.5243C56.8895 63.1588 57.1095 62.8093 57.4819 62.7433C57.7172 62.7017 63.3214 61.7482 69.9873 63.9676C70.3604 64.0916 70.5844 64.4764 70.4867 64.8267C70.3891 65.1768 70.0073 65.3599 69.6339 65.2356C63.3425 63.1408 57.9005 64.0581 57.8462 64.0675C57.6568 64.1007 57.465 64.0545 57.3087 63.953V63.953Z" fill="url(#paint35_linear)"/>
<path d="M47.2549 62.8758C52.6637 66.5679 57.4346 70.5437 61.3823 74.5342L56.6175 52.1174C56.0789 51.7349 55.5331 51.3554 54.9811 50.9786L47.2549 62.8758Z" fill="url(#paint36_linear)"/>
<path d="M31.5393 75.3446L38.0456 79.5698C38.3714 79.7814 38.807 79.6888 39.0185 79.363L56.5008 52.4427C56.7066 52.1258 56.6265 51.702 56.3175 51.4846C55.2636 50.7439 54.1841 50.0139 53.0799 49.2969C51.9758 48.5799 50.8698 47.8905 49.7644 47.229C49.4401 47.0349 49.0204 47.1344 48.8146 47.4512L31.3324 74.3715C31.121 74.6974 31.2136 75.133 31.5393 75.3446Z" fill="url(#paint37_linear)"/>
<path d="M64.6667 123.667L76.3334 112L76.3334 112C82.899 122.943 92.0573 132.101 103 138.667H103L91.3334 150.333V150.333C84.7678 139.391 75.6095 130.232 64.6668 123.667L64.6667 123.667Z" fill="#808080"/>
<path d="M133 82L69.6667 145.333L64.6667 140.333L126.758 75.7584L133 82Z" fill="#BC8D5D"/>
<path d="M154.667 60.3333L133 82L126.758 75.7583L148 53.6667L154.667 60.3333Z" fill="#A1764A"/>
<path d="M161.333 67L139.242 88.2417L133 82L154.667 60.3333L161.333 67Z" fill="#8C6231"/>
<path d="M139.242 88.2417L74.6667 150.333L69.6667 145.333L133 82L139.242 88.2417Z" fill="#A1764A"/>
<path d="M163 67.0164C163.002 66.7948 162.96 66.575 162.876 66.3698C162.792 66.1647 162.668 65.9783 162.512 65.8216L149.178 52.4882C149.022 52.3307 148.836 52.2063 148.631 52.1225C148.425 52.0386 148.205 51.997 147.984 52.0002C147.762 52.0023 147.543 52.0487 147.34 52.1365C147.136 52.2243 146.952 52.3518 146.799 52.5115L83.0389 118.822C81.1254 116.372 79.3633 113.807 77.7625 111.143C77.6322 110.925 77.4541 110.741 77.2417 110.603C77.0294 110.465 76.7884 110.377 76.537 110.346C76.2856 110.315 76.0305 110.342 75.791 110.424C75.5515 110.507 75.3339 110.642 75.1548 110.822L63.4882 122.488C63.3091 122.667 63.1731 122.885 63.0907 123.124C63.0083 123.364 62.9816 123.619 63.0125 123.87C63.0435 124.122 63.1313 124.363 63.2693 124.575C63.4074 124.787 63.592 124.966 63.8092 125.096C66.5661 126.752 69.2155 128.58 71.7418 130.571L63.4653 139.178C63.1628 139.493 62.9958 139.913 63.0001 140.35C63.0044 140.786 63.1796 141.203 63.4882 141.512L73.4882 151.512C73.7967 151.82 74.214 151.996 74.6503 152C75.0867 152.004 75.5073 151.837 75.8218 151.535L84.4294 143.258C86.4196 145.784 88.2481 148.434 89.9042 151.191C90.0345 151.408 90.2126 151.593 90.4249 151.731C90.6373 151.869 90.8783 151.957 91.1297 151.988C91.381 152.018 91.6362 151.992 91.8757 151.909C92.1152 151.827 92.3327 151.691 92.5118 151.512L104.178 139.845C104.358 139.666 104.493 139.449 104.576 139.209C104.658 138.97 104.685 138.714 104.654 138.463C104.623 138.212 104.535 137.971 104.397 137.758C104.259 137.546 104.075 137.368 103.857 137.238C101.193 135.637 98.6283 133.875 96.1784 131.961L162.488 68.2014C162.648 68.0478 162.776 67.8639 162.864 67.6604C162.951 67.457 162.998 67.238 163 67.0164V67.0164ZM148.023 56.0471L152.31 60.3334L133 79.6431L129.092 75.7354L148.023 56.0471ZM67.3336 123.357L76.0234 114.667C77.4719 116.939 79.0344 119.135 80.7051 121.249L74.0635 128.156C71.9046 126.441 69.6583 124.839 67.3336 123.357V123.357ZM67.0008 140.31L126.782 78.1386L130.643 82.0001L69.6667 142.976L67.0008 140.31ZM74.6895 147.999L72.0236 145.333L133 84.357L136.861 88.2185L74.6895 147.999ZM100.333 138.977L91.6433 147.666C90.1608 145.342 88.5589 143.095 86.844 140.937L93.7512 134.295C95.8648 135.966 98.0615 137.528 100.333 138.977V138.977ZM139.265 85.9078L135.357 82.0001L154.667 62.6904L158.953 66.9768L139.265 85.9078Z" fill="black"/>
<path d="M20.875 134.203H23.1875V142.953C23.1875 148.307 21.9062 152.245 19.3438 154.766C17.3854 156.661 14.8438 158.286 11.7188 159.641C11.4271 159.078 10.8646 158.286 10.0312 157.266C16.1354 155.161 19.5833 151.911 20.375 147.516C18.375 148.391 16.0104 149.474 13.2812 150.766C12.6354 151.12 12.1875 151.411 11.9375 151.641L10.5938 149.703C11.1771 149.161 11.4688 148.391 11.4688 147.391V131.797C15.7188 131.089 19.375 130.193 22.4375 129.109L23.75 131.141C20.875 132.057 17.5312 132.839 13.7188 133.484V147.922C16.4896 146.797 18.8438 145.807 20.7812 144.953C20.8438 144.224 20.875 143.464 20.875 142.672V134.203ZM26.9688 131.047H38.4688V149.047C38.4688 151.734 37.1354 153.089 34.4688 153.109C32.8646 153.151 31.6146 153.161 30.7188 153.141C30.6354 152.224 30.4792 151.328 30.25 150.453C31.4792 150.578 32.6354 150.651 33.7188 150.672C35.3438 150.672 36.1562 149.891 36.1562 148.328V133.297H29.2812V159.297H26.9688V131.047ZM30.4688 137.703L32.5312 137.109C33.3854 139.234 34.2083 141.651 35 144.359L32.5938 144.984C31.9271 142.422 31.2188 139.995 30.4688 137.703ZM15.3438 136.391L17.375 135.766C18.25 138.62 18.875 140.849 19.25 142.453L17.0625 143.078C16.6458 140.995 16.0729 138.766 15.3438 136.391Z" fill="white"/>
<defs>
<linearGradient id="paint0_linear" x1="74.6084" y1="52.7267" x2="71.0058" y2="58.2742" gradientUnits="userSpaceOnUse">
<stop stop-color="#F8F6FB"/>
<stop offset="1" stop-color="#EFDCFB"/>
</linearGradient>
<linearGradient id="paint1_linear" x1="73.8971" y1="55.4003" x2="83.2178" y2="38.2677" gradientUnits="userSpaceOnUse">
<stop stop-color="#EFDCFB" stop-opacity="0"/>
<stop offset="0.2889" stop-color="#C7B6DF" stop-opacity="0.289"/>
<stop offset="0.5915" stop-color="#A495C7" stop-opacity="0.592"/>
<stop offset="0.8395" stop-color="#8E80B7" stop-opacity="0.84"/>
<stop offset="1" stop-color="#8679B2"/>
</linearGradient>
<linearGradient id="paint2_linear" x1="91.2719" y1="57.7468" x2="81.2258" y2="49.5124" gradientUnits="userSpaceOnUse">
<stop stop-color="#EFDCFB" stop-opacity="0"/>
<stop offset="0.2889" stop-color="#C7B6DF" stop-opacity="0.289"/>
<stop offset="0.5915" stop-color="#A495C7" stop-opacity="0.592"/>
<stop offset="0.8395" stop-color="#8E80B7" stop-opacity="0.84"/>
<stop offset="1" stop-color="#8679B2"/>
</linearGradient>
<linearGradient id="paint3_linear" x1="85.3285" y1="37.3897" x2="76.5898" y2="50.8461" gradientUnits="userSpaceOnUse">
<stop stop-color="#FF7044"/>
<stop offset="1" stop-color="#F82814"/>
</linearGradient>
<linearGradient id="paint4_linear" x1="83.24" y1="37.6477" x2="72.6818" y2="67.66" gradientUnits="userSpaceOnUse">
<stop stop-color="#F82814" stop-opacity="0"/>
<stop offset="1" stop-color="#C0272D"/>
</linearGradient>
<linearGradient id="paint5_linear" x1="70.2696" y1="29.5084" x2="68.7773" y2="23.0851" gradientUnits="userSpaceOnUse">
<stop stop-color="#FF7044"/>
<stop offset="1" stop-color="#F82814"/>
</linearGradient>
<linearGradient id="paint6_linear" x1="78.0701" y1="33.1697" x2="76.7927" y2="26.7026" gradientUnits="userSpaceOnUse">
<stop stop-color="#FF7044"/>
<stop offset="1" stop-color="#F82814"/>
</linearGradient>
<linearGradient id="paint7_linear" x1="85.528" y1="37.4099" x2="84.6484" y2="30.8711" gradientUnits="userSpaceOnUse">
<stop stop-color="#FF7044"/>
<stop offset="1" stop-color="#F82814"/>
</linearGradient>
<linearGradient id="paint8_linear" x1="92.3633" y1="42.52" x2="91.838" y2="35.9455" gradientUnits="userSpaceOnUse">
<stop stop-color="#FF7044"/>
<stop offset="1" stop-color="#F82814"/>
</linearGradient>
<linearGradient id="paint9_linear" x1="98.9045" y1="48.153" x2="98.379" y2="41.5787" gradientUnits="userSpaceOnUse">
<stop stop-color="#FF7044"/>
<stop offset="1" stop-color="#F82814"/>
</linearGradient>
<linearGradient id="paint10_linear" x1="93.0398" y1="49.4473" x2="84.5424" y2="37.6575" gradientUnits="userSpaceOnUse">
<stop stop-color="#F82814" stop-opacity="0"/>
<stop offset="1" stop-color="#C0272D"/>
</linearGradient>
<linearGradient id="paint11_linear" x1="74.8309" y1="44.2876" x2="84.1161" y2="50.3175" gradientUnits="userSpaceOnUse">
<stop stop-color="#534854"/>
<stop offset="1" stop-color="#342434"/>
</linearGradient>
<linearGradient id="paint12_linear" x1="95.0817" y1="75.9858" x2="87.038" y2="62.8974" gradientUnits="userSpaceOnUse">
<stop stop-color="#EFDCFB" stop-opacity="0"/>
<stop offset="0.2889" stop-color="#C7B6DF" stop-opacity="0.289"/>
<stop offset="0.5915" stop-color="#A495C7" stop-opacity="0.592"/>
<stop offset="0.8395" stop-color="#8E80B7" stop-opacity="0.84"/>
<stop offset="1" stop-color="#8679B2"/>
</linearGradient>
<linearGradient id="paint13_linear" x1="57.0445" y1="60.8972" x2="53.4421" y2="66.4445" gradientUnits="userSpaceOnUse">
<stop stop-color="#F8F6FB"/>
<stop offset="1" stop-color="#EFDCFB"/>
</linearGradient>
<linearGradient id="paint14_linear" x1="56.3333" y1="63.5706" x2="65.654" y2="46.438" gradientUnits="userSpaceOnUse">
<stop stop-color="#EFDCFB" stop-opacity="0"/>
<stop offset="0.2889" stop-color="#C7B6DF" stop-opacity="0.289"/>
<stop offset="0.5915" stop-color="#A495C7" stop-opacity="0.592"/>
<stop offset="0.8395" stop-color="#8E80B7" stop-opacity="0.84"/>
<stop offset="1" stop-color="#8679B2"/>
</linearGradient>
<linearGradient id="paint15_linear" x1="73.7081" y1="65.9172" x2="63.662" y2="57.6827" gradientUnits="userSpaceOnUse">
<stop stop-color="#EFDCFB" stop-opacity="0"/>
<stop offset="0.2889" stop-color="#C7B6DF" stop-opacity="0.289"/>
<stop offset="0.5915" stop-color="#A495C7" stop-opacity="0.592"/>
<stop offset="0.8395" stop-color="#8E80B7" stop-opacity="0.84"/>
<stop offset="1" stop-color="#8679B2"/>
</linearGradient>
<linearGradient id="paint16_linear" x1="67.7646" y1="45.5602" x2="59.026" y2="59.0164" gradientUnits="userSpaceOnUse">
<stop stop-color="#FF7044"/>
<stop offset="1" stop-color="#F82814"/>
</linearGradient>
<linearGradient id="paint17_linear" x1="65.676" y1="45.818" x2="55.118" y2="75.8303" gradientUnits="userSpaceOnUse">
<stop stop-color="#F82814" stop-opacity="0"/>
<stop offset="1" stop-color="#C0272D"/>
</linearGradient>
<linearGradient id="paint18_linear" x1="52.7047" y1="37.6752" x2="51.2123" y2="31.2517" gradientUnits="userSpaceOnUse">
<stop stop-color="#FF7044"/>
<stop offset="1" stop-color="#F82814"/>
</linearGradient>
<linearGradient id="paint19_linear" x1="60.5144" y1="41.3394" x2="59.2368" y2="34.8724" gradientUnits="userSpaceOnUse">
<stop stop-color="#FF7044"/>
<stop offset="1" stop-color="#F82814"/>
</linearGradient>
<linearGradient id="paint20_linear" x1="67.9523" y1="45.5766" x2="67.0725" y2="39.0377" gradientUnits="userSpaceOnUse">
<stop stop-color="#FF7044"/>
<stop offset="1" stop-color="#F82814"/>
</linearGradient>
<linearGradient id="paint21_linear" x1="74.7995" y1="50.6903" x2="74.2742" y2="44.1159" gradientUnits="userSpaceOnUse">
<stop stop-color="#FF7044"/>
<stop offset="1" stop-color="#F82814"/>
</linearGradient>
<linearGradient id="paint22_linear" x1="81.3404" y1="56.3234" x2="80.8152" y2="49.749" gradientUnits="userSpaceOnUse">
<stop stop-color="#FF7044"/>
<stop offset="1" stop-color="#F82814"/>
</linearGradient>
<linearGradient id="paint23_linear" x1="75.4761" y1="57.6176" x2="66.9786" y2="45.8278" gradientUnits="userSpaceOnUse">
<stop stop-color="#F82814" stop-opacity="0"/>
<stop offset="1" stop-color="#C0272D"/>
</linearGradient>
<linearGradient id="paint24_linear" x1="57.2671" y1="52.4579" x2="66.5523" y2="58.4878" gradientUnits="userSpaceOnUse">
<stop stop-color="#534854"/>
<stop offset="1" stop-color="#342434"/>
</linearGradient>
<linearGradient id="paint25_linear" x1="77.4968" y1="84.1491" x2="69.4532" y2="71.0605" gradientUnits="userSpaceOnUse">
<stop stop-color="#EFDCFB" stop-opacity="0"/>
<stop offset="0.2889" stop-color="#C7B6DF" stop-opacity="0.289"/>
<stop offset="0.5915" stop-color="#A495C7" stop-opacity="0.592"/>
<stop offset="0.8395" stop-color="#8E80B7" stop-opacity="0.84"/>
<stop offset="1" stop-color="#8679B2"/>
</linearGradient>
<linearGradient id="paint26_linear" x1="39.4806" y1="69.0674" x2="35.8782" y2="74.6147" gradientUnits="userSpaceOnUse">
<stop stop-color="#F8F6FB"/>
<stop offset="1" stop-color="#EFDCFB"/>
</linearGradient>
<linearGradient id="paint27_linear" x1="38.7695" y1="71.7411" x2="48.0903" y2="54.6083" gradientUnits="userSpaceOnUse">
<stop stop-color="#EFDCFB" stop-opacity="0"/>
<stop offset="0.2889" stop-color="#C7B6DF" stop-opacity="0.289"/>
<stop offset="0.5915" stop-color="#A495C7" stop-opacity="0.592"/>
<stop offset="0.8395" stop-color="#8E80B7" stop-opacity="0.84"/>
<stop offset="1" stop-color="#8679B2"/>
</linearGradient>
<linearGradient id="paint28_linear" x1="56.1443" y1="74.0875" x2="46.0981" y2="65.853" gradientUnits="userSpaceOnUse">
<stop stop-color="#EFDCFB" stop-opacity="0"/>
<stop offset="0.2889" stop-color="#C7B6DF" stop-opacity="0.289"/>
<stop offset="0.5915" stop-color="#A495C7" stop-opacity="0.592"/>
<stop offset="0.8395" stop-color="#8E80B7" stop-opacity="0.84"/>
<stop offset="1" stop-color="#8679B2"/>
</linearGradient>
<linearGradient id="paint29_linear" x1="50.2009" y1="53.7305" x2="41.4622" y2="67.1868" gradientUnits="userSpaceOnUse">
<stop stop-color="#FF7044"/>
<stop offset="1" stop-color="#F82814"/>
</linearGradient>
<linearGradient id="paint30_linear" x1="48.1123" y1="53.9883" x2="37.5542" y2="84.0006" gradientUnits="userSpaceOnUse">
<stop stop-color="#F82814" stop-opacity="0"/>
<stop offset="1" stop-color="#C0272D"/>
</linearGradient>
<linearGradient id="paint31_linear" x1="35.1397" y1="45.8418" x2="33.6474" y2="39.4185" gradientUnits="userSpaceOnUse">
<stop stop-color="#FF7044"/>
<stop offset="1" stop-color="#F82814"/>
</linearGradient>
<linearGradient id="paint32_linear" x1="42.9585" y1="49.5092" x2="41.681" y2="43.0422" gradientUnits="userSpaceOnUse">
<stop stop-color="#FF7044"/>
<stop offset="1" stop-color="#F82814"/>
</linearGradient>
<linearGradient id="paint33_linear" x1="50.3766" y1="53.7434" x2="49.4968" y2="47.2045" gradientUnits="userSpaceOnUse">
<stop stop-color="#FF7044"/>
<stop offset="1" stop-color="#F82814"/>
</linearGradient>
<linearGradient id="paint34_linear" x1="57.2358" y1="58.8606" x2="56.7104" y2="52.2863" gradientUnits="userSpaceOnUse">
<stop stop-color="#FF7044"/>
<stop offset="1" stop-color="#F82814"/>
</linearGradient>
<linearGradient id="paint35_linear" x1="63.7767" y1="64.4937" x2="63.2514" y2="57.9193" gradientUnits="userSpaceOnUse">
<stop stop-color="#FF7044"/>
<stop offset="1" stop-color="#F82814"/>
</linearGradient>
<linearGradient id="paint36_linear" x1="57.9122" y1="65.7878" x2="49.4149" y2="53.9981" gradientUnits="userSpaceOnUse">
<stop stop-color="#F82814" stop-opacity="0"/>
<stop offset="1" stop-color="#C0272D"/>
</linearGradient>
<linearGradient id="paint37_linear" x1="39.7033" y1="60.6282" x2="48.9884" y2="66.658" gradientUnits="userSpaceOnUse">
<stop stop-color="#534854"/>
<stop offset="1" stop-color="#342434"/>
</linearGradient>
</defs>
</svg>
